<svg width="58" height="58" viewBox="0 0 58 58" fill="none" xmlns="http://www.w3.org/2000/svg">
<mask id="mask0_19_41" style="mask-type:alpha" maskUnits="userSpaceOnUse" x="0" y="0" width="58" height="58">
<path d="M18.125 39.875H39.875V18.125H18.125V39.875ZM50.75 19.9375H56.1875C57.1844 19.9375 58 19.1219 58 18.125C58 17.1281 57.1887 16.3125 56.1875 16.3125H50.75V14.5C50.75 10.4955 47.5045 7.25 43.5 7.25H41.6875V1.8125C41.6875 0.811547 40.8719 0 39.875 0C38.874 0 38.0625 0.811547 38.0625 1.8125V7.25H30.8125V1.8125C30.8125 0.811547 29.9969 0 29 0C28.0031 0 27.1875 0.811547 27.1875 1.8125V7.25H19.9375V1.8125C19.9375 0.811547 19.1219 0 18.125 0C17.1281 0 16.3125 0.811547 16.3125 1.8125V7.25H14.5C10.4955 7.25 7.25 10.4955 7.25 14.5V16.3125H1.8125C0.811547 16.3125 0 17.1281 0 18.125C0 19.1219 0.811547 19.9375 1.8125 19.9375H7.25V27.1875H1.8125C0.811547 27.1875 0 28.0031 0 29C0 29.9969 0.811547 30.8125 1.8125 30.8125H7.25V38.0625H1.8125C0.811547 38.0625 0 38.8781 0 39.875C0 40.8719 0.811547 41.6875 1.8125 41.6875H7.25V43.5C7.25 47.5045 10.4955 50.75 14.5 50.75H16.3125V56.1875C16.3125 57.1844 17.1281 58 18.125 58C19.1262 58 19.9375 57.1885 19.9375 56.1875V50.75H27.1875V56.1875C27.1875 57.1885 27.999 58 29 58C30.0012 58 30.8125 57.1885 30.8125 56.1875V50.75H38.0625V56.1875C38.0625 57.1885 38.874 58 39.875 58C40.8762 58 41.6875 57.1885 41.6875 56.1875V50.75H43.5C47.5045 50.75 50.75 47.5045 50.75 43.5V41.6875H56.1875C57.1887 41.6875 58 40.876 58 39.875C58 38.874 57.1887 38.0625 56.1875 38.0625H50.75V30.8125H56.1875C57.1844 30.8125 58 29.9969 58 29C58 28.0031 57.1887 27.1875 56.1875 27.1875H50.75V19.9375ZM43.5 41.6875C43.5 42.6885 42.6887 43.5 41.6875 43.5H16.3125C15.3156 43.5 14.5 42.6844 14.5 41.6875V16.3125C14.5 15.3156 15.3156 14.5 16.3125 14.5H41.6875C42.6844 14.5 43.5 15.3156 43.5 16.3125V41.6875Z" fill="black"/>
</mask>
<g mask="url(#mask0_19_41)">
<rect x="-19" y="-7" width="91" height="65" fill="#5D5D5D"/>
</g>
</svg>
