<svg width="58" height="58" viewBox="0 0 58 58" fill="none" xmlns="http://www.w3.org/2000/svg">
<mask id="mask0_19_37" style="mask-type:alpha" maskUnits="userSpaceOnUse" x="0" y="0" width="58" height="58">
<g clip-path="url(#clip0_19_37)">
<path d="M2.14327 39.7843L14.4343 34.5145C15.882 33.8879 17.5801 34.3104 18.5634 35.5317L23.558 41.6285C31.4027 37.777 37.7748 31.3981 41.6263 23.5602L35.5307 18.5713C34.3129 17.5765 33.8983 15.8876 34.5141 14.4399L39.7828 2.14887C40.4731 0.573131 42.173 -0.288939 43.8371 0.0973502L55.2559 2.73114C56.8701 3.0993 57.9995 4.52098 57.9995 6.18169C57.9995 34.7625 34.7542 58.0079 6.17337 58.0079C4.51153 58.0079 3.09438 56.8787 2.72395 55.2642L0.0901653 43.8454C-0.291253 42.1859 0.568439 40.464 2.14327 39.7843Z" fill="black"/>
</g>
</mask>
<g mask="url(#mask0_19_37)">
<rect x="-16" width="78" height="68" fill="#5D5D5D"/>
</g>
<defs>
<clipPath id="clip0_19_37">
<rect width="58" height="58" fill="white"/>
</clipPath>
</defs>
</svg>
