<svg width="66" height="66" viewBox="0 0 66 66" fill="none" xmlns="http://www.w3.org/2000/svg">
<mask id="mask0_19_33" style="mask-type:alpha" maskUnits="userSpaceOnUse" x="0" y="0" width="66" height="66">
<g clip-path="url(#clip0_19_33)">
<path d="M20.6379 41.2501C18.364 41.2501 16.5103 43.1025 16.5103 45.2591C16.5103 47.4157 18.364 49.2681 20.6379 49.2681C22.9118 49.2681 24.7655 47.4157 24.7655 45.2591C24.7655 43.1025 22.9195 41.2501 20.6379 41.2501ZM11.171 46.5869C9.5584 44.9768 6.94676 44.9768 5.33543 46.5869C3.72281 48.1982 3.72281 50.8124 5.33543 52.4225L13.5803 60.6712C15.1929 62.2812 17.8045 62.2812 19.4159 60.6714C21.0285 59.0601 21.0285 56.4459 19.4159 54.8358L11.171 46.5869ZM4.12758 57.7501C1.85367 57.7501 0 59.6064 0 61.8751C0 64.1439 1.85367 66.0001 4.12758 66.0001C6.40148 66.0001 8.25516 64.1478 8.25516 61.9912C8.25516 59.8346 6.40148 57.7501 4.12758 57.7501ZM37.0863 9.06354C22.7906 5.27628 9.79688 15.1905 8.36602 28.5155C8.00508 30.9248 10.1488 32.8841 12.5774 32.8841C14.7185 32.8841 16.3479 31.1993 16.6044 29.075C17.4982 21.6989 23.9791 16.0167 31.6736 16.4035C40.9174 16.8668 46.7685 26.306 44.8864 35.3398C44.042 39.1619 42.1278 42.6707 39.2945 45.5066L37.125 47.7857V49.4937C37.125 53.5414 34.1975 56.9161 30.3471 57.6122C28.4109 57.9693 26.8125 59.7224 26.8125 61.6947C26.8125 64.2444 29.1173 66.1987 31.631 65.7733C38.8395 64.556 44.4739 58.6473 45.2822 51.31C50.4526 46.0661 53.3891 39.1992 53.616 31.858C53.9344 21.4501 47.1539 11.7306 37.0863 9.06354ZM30.9375 25.7814C33.7812 25.7814 36.0938 28.094 36.0938 30.9376C36.0938 32.6457 37.4795 34.0314 39.1875 34.0314C40.8955 34.0314 42.2812 32.6457 42.2812 30.9376C42.2812 24.6818 37.1933 19.5939 30.9375 19.5939C24.6817 19.5939 19.5938 24.6857 19.5938 30.9376C19.5938 32.6457 20.9795 34.0314 22.6875 34.0314C24.3955 34.0314 25.7812 32.6521 25.7812 30.9376C25.7812 28.0888 28.0887 25.7814 30.9375 25.7814ZM51.2789 0.402978C49.228 -0.575936 46.7607 0.294207 45.7798 2.34817C44.8009 4.40681 45.673 6.86763 47.7288 7.84731C53.8184 10.7522 57.75 17.3896 57.75 24.7501C57.75 27.0305 59.5972 28.8751 61.875 28.8751C64.1528 28.8751 66 27.0318 66 24.7501C66 14.2185 60.225 4.66526 51.2789 0.402978Z" fill="black"/>
</g>
</mask>
<g mask="url(#mask0_19_33)">
<rect x="-13" width="80" height="72" fill="#5D5D5D"/>
</g>
<defs>
<clipPath id="clip0_19_33">
<rect width="66" height="66" fill="white"/>
</clipPath>
</defs>
</svg>
